<svg width="355" height="145" viewBox="0 0 355 145" fill="none" xmlns="http://www.w3.org/2000/svg">
<rect width="355" height="145" rx="67" fill="black"/>
<path d="M75.2042 69.6616V75.8352H57.6143V69.6616H75.2042ZM46.0767 79.6204H53.6268C53.8697 82.1843 54.6861 84.1275 56.076 85.4499C57.4794 86.7724 59.6115 87.4336 62.4723 87.4336C64.6854 87.4336 66.4801 86.8803 67.8565 85.7738C69.233 84.6538 70.2383 83.1019 70.8725 81.1183C71.5067 79.1346 71.8239 76.8271 71.8239 74.1957V70.4308C71.8239 67.6644 71.4663 65.2962 70.7511 63.326C70.0359 61.3558 68.9698 59.8512 67.5529 58.8121C66.136 57.7596 64.3817 57.2333 62.2901 57.2333C60.3065 57.2333 58.7074 57.5504 57.4929 58.1847C56.2784 58.8189 55.3675 59.7365 54.7603 60.9375C54.1531 62.125 53.7617 63.5487 53.5863 65.2085H46.0362C46.3061 62.5096 47.0753 60.0874 48.3438 57.9418C49.6122 55.7962 51.4002 54.1026 53.7077 52.8611C56.0153 51.6062 58.8761 50.9787 62.2901 50.9787C65.7582 50.9787 68.7607 51.7749 71.2976 53.3672C73.848 54.9595 75.8182 57.2131 77.2081 60.1278C78.6115 63.0426 79.3132 66.4702 79.3132 70.4105V74.2564C79.3132 78.1967 78.625 81.6175 77.2486 84.5188C75.8857 87.4066 73.9492 89.6399 71.4393 91.2188C68.9293 92.7841 65.9403 93.5668 62.4723 93.5668C59.1122 93.5668 56.2514 92.973 53.8899 91.7855C51.5284 90.5845 49.6932 88.9382 48.3842 86.8466C47.0753 84.7415 46.3061 82.3327 46.0767 79.6204ZM86.1194 93V61.9091H93.4468V74.4588H96.1187L105.47 61.9091H114.296L102.778 77.1712L114.417 93H105.551L97.0296 81.2802H93.4468V93H86.1194ZM130.853 93.6072C127.817 93.6072 125.185 92.9393 122.959 91.6033C120.732 90.2674 119.005 88.3984 117.777 85.9964C116.563 83.5945 115.955 80.7876 115.955 77.576C115.955 74.3643 116.563 71.5508 117.777 69.1353C119.005 66.7198 120.732 64.8441 122.959 63.5082C125.185 62.1722 127.817 61.5043 130.853 61.5043C133.889 61.5043 136.521 62.1722 138.747 63.5082C140.974 64.8441 142.694 66.7198 143.909 69.1353C145.137 71.5508 145.751 74.3643 145.751 77.576C145.751 80.7876 145.137 83.5945 143.909 85.9964C142.694 88.3984 140.974 90.2674 138.747 91.6033C136.521 92.9393 133.889 93.6072 130.853 93.6072ZM130.894 87.7372C132.54 87.7372 133.916 87.2852 135.023 86.381C136.129 85.4634 136.953 84.2354 137.492 82.6971C138.046 81.1587 138.322 79.445 138.322 77.5558C138.322 75.6531 138.046 73.9325 137.492 72.3942C136.953 70.8423 136.129 69.6076 135.023 68.69C133.916 67.7724 132.54 67.3136 130.894 67.3136C129.207 67.3136 127.803 67.7724 126.683 68.69C125.577 69.6076 124.747 70.8423 124.194 72.3942C123.654 73.9325 123.384 75.6531 123.384 77.5558C123.384 79.445 123.654 81.1587 124.194 82.6971C124.747 84.2354 125.577 85.4634 126.683 86.381C127.803 87.2852 129.207 87.7372 130.894 87.7372ZM149.824 93L149.784 86.968H150.857C151.666 86.968 152.348 86.7859 152.901 86.4215C153.454 86.0572 153.913 85.4499 154.278 84.5998C154.642 83.7362 154.925 82.5756 155.128 81.1183C155.33 79.6609 155.472 77.8459 155.553 75.6733L156.099 61.9091H178.77V93H171.685V67.9208H162.759L162.273 77.9403C162.151 80.5312 161.861 82.7781 161.403 84.6808C160.957 86.57 160.323 88.1286 159.5 89.3565C158.69 90.5845 157.671 91.5021 156.443 92.1094C155.215 92.7031 153.765 93 152.091 93H149.824ZM199.71 93.6072C196.673 93.6072 194.042 92.9393 191.815 91.6033C189.589 90.2674 187.862 88.3984 186.634 85.9964C185.419 83.5945 184.812 80.7876 184.812 77.576C184.812 74.3643 185.419 71.5508 186.634 69.1353C187.862 66.7198 189.589 64.8441 191.815 63.5082C194.042 62.1722 196.673 61.5043 199.71 61.5043C202.746 61.5043 205.377 62.1722 207.604 63.5082C209.83 64.8441 211.551 66.7198 212.765 69.1353C213.993 71.5508 214.607 74.3643 214.607 77.576C214.607 80.7876 213.993 83.5945 212.765 85.9964C211.551 88.3984 209.83 90.2674 207.604 91.6033C205.377 92.9393 202.746 93.6072 199.71 93.6072ZM199.75 87.7372C201.396 87.7372 202.773 87.2852 203.879 86.381C204.986 85.4634 205.809 84.2354 206.349 82.6971C206.902 81.1587 207.179 79.445 207.179 77.5558C207.179 75.6531 206.902 73.9325 206.349 72.3942C205.809 70.8423 204.986 69.6076 203.879 68.69C202.773 67.7724 201.396 67.3136 199.75 67.3136C198.063 67.3136 196.66 67.7724 195.54 68.69C194.433 69.6076 193.603 70.8423 193.05 72.3942C192.51 73.9325 192.24 75.6531 192.24 77.5558C192.24 79.445 192.51 81.1587 193.05 82.6971C193.603 84.2354 194.433 85.4634 195.54 86.381C196.66 87.2852 198.063 87.7372 199.75 87.7372ZM241.392 61.9091V67.9208H227.992V93H220.826V61.9091H241.392ZM254.331 83.0817L266.78 61.9091H274.309V93H267.225V71.8072L254.817 93H247.267V61.9091H254.331V83.0817ZM300.214 93V67.8601H293.574C291.888 67.8601 290.592 68.2514 289.688 69.0341C288.784 69.8168 288.339 70.7884 288.352 71.9489C288.339 73.1094 288.764 74.0675 289.627 74.8232C290.491 75.5788 291.726 75.9567 293.331 75.9567H302.521V81.3004H293.331C290.848 81.3004 288.703 80.9091 286.895 80.1264C285.086 79.3437 283.696 78.2372 282.725 76.8068C281.753 75.3764 281.267 73.7031 281.267 71.7869C281.267 69.7898 281.76 68.0558 282.745 66.5849C283.744 65.1005 285.161 63.9535 286.996 63.1438C288.845 62.3207 291.037 61.9091 293.574 61.9091H307.075V93H300.214ZM280.134 93L288.818 77.0497H296.044L287.34 93H280.134Z" fill="white"/>
</svg>
