<svg width="435" height="145" viewBox="0 0 435 145" fill="none" xmlns="http://www.w3.org/2000/svg">
<rect width="435" height="145" rx="39" fill="black"/>
<path d="M72.0888 93V51.5455H99.0504V57.8406H79.5984V69.0948H97.6538V75.3899H79.5984V86.7049H99.2124V93H72.0888ZM119.95 93.6072C116.846 93.6072 114.181 92.9258 111.954 91.5629C109.741 90.1999 108.034 88.3175 106.833 85.9155C105.646 83.5 105.052 80.7202 105.052 77.576C105.052 74.4183 105.659 71.6317 106.874 69.2163C108.088 66.7873 109.802 64.8981 112.015 63.5486C114.242 62.1857 116.873 61.5043 119.909 61.5043C122.433 61.5043 124.666 61.9698 126.609 62.9009C128.566 63.8185 130.124 65.1207 131.285 66.8075C132.445 68.4808 133.107 70.4375 133.269 72.6776H126.265C125.982 71.1797 125.307 69.9315 124.241 68.9329C123.188 67.9208 121.778 67.4148 120.01 67.4148C118.513 67.4148 117.197 67.8196 116.063 68.6293C114.93 69.4254 114.046 70.5724 113.412 72.0703C112.791 73.5682 112.481 75.3629 112.481 77.4545C112.481 79.5732 112.791 81.3949 113.412 82.9197C114.032 84.4311 114.903 85.5984 116.023 86.4215C117.156 87.2312 118.486 87.636 120.01 87.636C121.09 87.636 122.055 87.4336 122.905 87.0288C123.769 86.6104 124.491 86.0099 125.071 85.2273C125.651 84.4446 126.049 83.4933 126.265 82.3732H133.269C133.093 84.5728 132.445 86.5227 131.325 88.223C130.205 89.9098 128.681 91.2322 126.751 92.1903C124.821 93.1349 122.554 93.6072 119.95 93.6072ZM152.847 93.6072C149.811 93.6072 147.18 92.9393 144.953 91.6033C142.726 90.2674 140.999 88.3984 139.771 85.9964C138.557 83.5945 137.949 80.7876 137.949 77.576C137.949 74.3643 138.557 71.5508 139.771 69.1353C140.999 66.7198 142.726 64.8441 144.953 63.5082C147.18 62.1722 149.811 61.5043 152.847 61.5043C155.883 61.5043 158.515 62.1722 160.741 63.5082C162.968 64.8441 164.688 66.7198 165.903 69.1353C167.131 71.5508 167.745 74.3643 167.745 77.576C167.745 80.7876 167.131 83.5945 165.903 85.9964C164.688 88.3984 162.968 90.2674 160.741 91.6033C158.515 92.9393 155.883 93.6072 152.847 93.6072ZM152.888 87.7372C154.534 87.7372 155.91 87.2852 157.017 86.381C158.123 85.4634 158.947 84.2354 159.486 82.6971C160.04 81.1587 160.316 79.445 160.316 77.5558C160.316 75.6531 160.04 73.9325 159.486 72.3942C158.947 70.8423 158.123 69.6076 157.017 68.69C155.91 67.7724 154.534 67.3136 152.888 67.3136C151.201 67.3136 149.797 67.7724 148.677 68.69C147.571 69.6076 146.741 70.8423 146.188 72.3942C145.648 73.9325 145.378 75.6531 145.378 77.5558C145.378 79.445 145.648 81.1587 146.188 82.6971C146.741 84.2354 147.571 85.4634 148.677 86.381C149.797 87.2852 151.201 87.7372 152.888 87.7372ZM174.288 93V51.5455H189.833C193.018 51.5455 195.69 52.1392 197.849 53.3267C200.022 54.5142 201.661 56.147 202.768 58.2251C203.888 60.2898 204.448 62.6378 204.448 65.2692C204.448 67.9276 203.888 70.2891 202.768 72.3537C201.648 74.4183 199.995 76.0444 197.809 77.2319C195.623 78.4059 192.93 78.9929 189.732 78.9929H179.429V72.8192H188.72C190.582 72.8192 192.107 72.4954 193.295 71.8477C194.482 71.1999 195.359 70.3093 195.926 69.1758C196.506 68.0423 196.797 66.7401 196.797 65.2692C196.797 63.7983 196.506 62.5028 195.926 61.3828C195.359 60.2628 194.475 59.3924 193.275 58.7717C192.087 58.1374 190.555 57.8203 188.68 57.8203H181.798V93H174.288ZM210.647 93V61.9091H217.752V67.0909H218.075C218.642 65.2962 219.614 63.913 220.99 62.9414C222.38 61.9563 223.966 61.4638 225.747 61.4638C226.152 61.4638 226.604 61.484 227.103 61.5245C227.616 61.5515 228.041 61.5987 228.378 61.6662V68.4066C228.068 68.2986 227.575 68.2042 226.901 68.1232C226.239 68.0288 225.598 67.9815 224.978 67.9815C223.642 67.9815 222.441 68.2717 221.375 68.8519C220.322 69.4187 219.492 70.2081 218.885 71.2202C218.278 72.2322 217.974 73.3995 217.974 74.7219V93H210.647ZM245.528 93.6072C242.492 93.6072 239.86 92.9393 237.634 91.6033C235.407 90.2674 233.68 88.3984 232.452 85.9964C231.237 83.5945 230.63 80.7876 230.63 77.576C230.63 74.3643 231.237 71.5508 232.452 69.1353C233.68 66.7198 235.407 64.8441 237.634 63.5082C239.86 62.1722 242.492 61.5043 245.528 61.5043C248.564 61.5043 251.195 62.1722 253.422 63.5082C255.649 64.8441 257.369 66.7198 258.584 69.1353C259.812 71.5508 260.426 74.3643 260.426 77.576C260.426 80.7876 259.812 83.5945 258.584 85.9964C257.369 88.3984 255.649 90.2674 253.422 91.6033C251.195 92.9393 248.564 93.6072 245.528 93.6072ZM245.568 87.7372C247.215 87.7372 248.591 87.2852 249.698 86.381C250.804 85.4634 251.627 84.2354 252.167 82.6971C252.72 81.1587 252.997 79.445 252.997 77.5558C252.997 75.6531 252.72 73.9325 252.167 72.3942C251.627 70.8423 250.804 69.6076 249.698 68.69C248.591 67.7724 247.215 67.3136 245.568 67.3136C243.882 67.3136 242.478 67.7724 241.358 68.69C240.252 69.6076 239.422 70.8423 238.868 72.3942C238.329 73.9325 238.059 75.6531 238.059 77.5558C238.059 79.445 238.329 81.1587 238.868 82.6971C239.422 84.2354 240.252 85.4634 241.358 86.381C242.478 87.2852 243.882 87.7372 245.568 87.7372ZM266.645 61.9091H273.972V94.7812C273.972 97.0213 273.547 98.87 272.697 100.327C271.847 101.785 270.619 102.871 269.013 103.586C267.407 104.301 265.457 104.659 263.163 104.659C262.893 104.659 262.644 104.652 262.414 104.639C262.185 104.639 261.935 104.632 261.665 104.619V98.6474C261.868 98.6609 262.05 98.6676 262.212 98.6676C262.374 98.6811 262.543 98.6879 262.718 98.6879C264.121 98.6879 265.127 98.3438 265.734 97.6555C266.341 96.9808 266.645 95.989 266.645 94.68V61.9091ZM270.288 57.4964C269.114 57.4964 268.109 57.1119 267.272 56.3427C266.449 55.56 266.038 54.6222 266.038 53.5291C266.038 52.4226 266.449 51.4847 267.272 50.7156C268.109 49.9329 269.114 49.5415 270.288 49.5415C271.449 49.5415 272.441 49.9329 273.264 50.7156C274.1 51.4847 274.519 52.4226 274.519 53.5291C274.519 54.6222 274.1 55.56 273.264 56.3427C272.441 57.1119 271.449 57.4964 270.288 57.4964ZM295.271 93.6072C292.154 93.6072 289.462 92.9595 287.195 91.6641C284.941 90.3551 283.207 88.5064 281.993 86.1179C280.778 83.7159 280.171 80.8888 280.171 77.6367C280.171 74.4386 280.778 71.6317 281.993 69.2163C283.221 66.7873 284.935 64.8981 287.134 63.5486C289.334 62.1857 291.918 61.5043 294.887 61.5043C296.803 61.5043 298.611 61.8146 300.311 62.4354C302.025 63.0426 303.537 63.9872 304.846 65.2692C306.168 66.5511 307.207 68.1839 307.963 70.1676C308.718 72.1378 309.096 74.4858 309.096 77.2116V79.4585H283.612V74.5195H302.072C302.059 73.1161 301.755 71.8679 301.162 70.7749C300.568 69.6683 299.738 68.7979 298.672 68.1637C297.619 67.5295 296.391 67.2124 294.988 67.2124C293.49 67.2124 292.174 67.5767 291.041 68.3054C289.907 69.0206 289.023 69.9652 288.389 71.1392C287.768 72.2997 287.451 73.5749 287.438 74.9648V79.2763C287.438 81.0845 287.768 82.6364 288.43 83.9318C289.091 85.2138 290.015 86.1989 291.203 86.8871C292.39 87.5618 293.78 87.8991 295.373 87.8991C296.439 87.8991 297.403 87.7507 298.267 87.4538C299.131 87.1435 299.88 86.6914 300.514 86.0977C301.148 85.5039 301.627 84.7685 301.951 83.8913L308.793 84.6605C308.361 86.4687 307.538 88.0476 306.323 89.397C305.122 90.733 303.584 91.772 301.708 92.5142C299.832 93.2429 297.687 93.6072 295.271 93.6072ZM328.857 93.6072C325.753 93.6072 323.088 92.9258 320.862 91.5629C318.649 90.1999 316.941 88.3175 315.741 85.9155C314.553 83.5 313.959 80.7202 313.959 77.576C313.959 74.4183 314.566 71.6317 315.781 69.2163C316.995 66.7873 318.709 64.8981 320.922 63.5486C323.149 62.1857 325.78 61.5043 328.816 61.5043C331.34 61.5043 333.573 61.9698 335.516 62.9009C337.473 63.8185 339.032 65.1207 340.192 66.8075C341.353 68.4808 342.014 70.4375 342.176 72.6776H335.172C334.889 71.1797 334.214 69.9315 333.148 68.9329C332.096 67.9208 330.685 67.4148 328.918 67.4148C327.42 67.4148 326.104 67.8196 324.971 68.6293C323.837 69.4254 322.953 70.5724 322.319 72.0703C321.698 73.5682 321.388 75.3629 321.388 77.4545C321.388 79.5732 321.698 81.3949 322.319 82.9197C322.94 84.4311 323.81 85.5984 324.93 86.4215C326.064 87.2312 327.393 87.636 328.918 87.636C329.997 87.636 330.962 87.4336 331.812 87.0288C332.676 86.6104 333.398 86.0099 333.978 85.2273C334.558 84.4446 334.956 83.4933 335.172 82.3732H342.176C342 84.5728 341.353 86.5227 340.233 88.223C339.113 89.9098 337.588 91.2322 335.658 92.1903C333.728 93.1349 331.461 93.6072 328.857 93.6072ZM363.718 61.9091V67.5767H345.845V61.9091H363.718ZM350.257 54.4602H357.585V83.6484C357.585 84.6335 357.733 85.3892 358.03 85.9155C358.34 86.4283 358.745 86.7791 359.244 86.968C359.744 87.157 360.297 87.2514 360.904 87.2514C361.363 87.2514 361.781 87.2177 362.159 87.1502C362.551 87.0827 362.847 87.022 363.05 86.968L364.285 92.6964C363.893 92.8313 363.333 92.9798 362.605 93.1417C361.889 93.3036 361.012 93.3981 359.973 93.4251C358.138 93.479 356.485 93.2024 355.014 92.5952C353.543 91.9744 352.376 91.0163 351.512 89.7209C350.662 88.4254 350.244 86.8061 350.257 84.8629V54.4602Z" fill="white"/>
</svg>
