<svg width="153" height="145" viewBox="0 0 153 145" fill="none" xmlns="http://www.w3.org/2000/svg">
<rect x="2.5" y="2.5" width="148" height="140" rx="64.5" stroke="white" stroke-width="5"/>
<path d="M44.9904 88.4479L54.2988 72.3327L61.9227 76.6634L51.5545 58.9866L31 59.0303L38.326 63.2851C38.326 63.2851 33.9572 70.5048 32.9921 72.1671C31.4391 74.8318 30.6421 78.7326 32.3674 81.4449C32.6304 81.8708 37.5892 90.5571 41.5889 97.3812C41.672 94.3533 43.2423 91.5345 44.9987 88.4478L44.9904 88.4479Z" fill="white"/>
<path d="M44.277 101.977C44.4993 102.353 44.7238 102.728 44.9344 103.097C45.9537 104.831 48.4078 107.11 57.9483 106.944C60.0314 106.906 68.3282 106.963 70.8036 106.983L70.9236 88.6324L46.6363 88.467C43.8922 93.277 41.5655 97.3529 44.277 101.977Z" fill="white"/>
<path d="M64.586 28H63.2728C61.2421 28 57.9986 28.949 53.3784 37.1598C52.3708 38.9495 48.1721 45.9886 46.9209 48.0847L63.0137 57.3663L75.3141 36.7623C72.4421 32.0188 70.0168 28 64.586 28Z" fill="white"/>
<path d="M98.81 55.6906L109.047 38.1658L101.642 42.2798C101.642 42.2798 97.4544 34.9402 96.4836 33.2949C94.9151 30.6379 91.8749 28.0132 88.6258 28.1197C88.1268 28.133 77.9905 28.0132 69.98 28.0056C72.6007 29.5936 74.3024 32.3363 76.1339 35.3777L76.1416 35.3625L85.686 51.3597L78.0582 55.6906H98.81Z" fill="white"/>
<path d="M107.318 88.5621L88.4632 88.6952V80.0357L78.0854 97.7123L88.3975 115.193L88.4847 106.83C88.4847 106.83 97.0347 106.935 98.9746 106.925C102.1 106.912 105.926 105.646 107.459 102.817C107.697 102.385 112.87 93.8078 116.878 87.0006C114.178 88.4385 110.902 88.5128 107.314 88.5565L107.318 88.5621Z" fill="white"/>
<path d="M117.121 68.2851C116.054 66.5258 111.956 59.4374 110.733 57.3167L94.5129 66.3834L106.506 87.1604C112.114 87.0899 116.866 87.0328 119.581 82.4169C119.806 82.0345 120.024 81.6618 120.245 81.2853C121.256 79.5582 122.042 76.3249 117.121 68.2851Z" fill="white"/>
</svg>
